<?xml version="1.0" encoding="UTF-8" standalone="no"?>
<svg
   width="256"
   height="256"
   viewBox="0 0 256 256"
   version="1.1"
   xml:space="preserve"
   style="clip-rule:evenodd;fill-rule:evenodd;stroke-linejoin:round;stroke-miterlimit:2"
   id="svg988"
   sodipodi:docname="logo.svg"
   inkscape:export-filename="D:\github\openfiltr-dashboard\public\favicon.png"
   inkscape:export-xdpi="24.000002"
   inkscape:export-ydpi="24.000002"
   inkscape:version="1.1 (c68e22c387, 2021-05-23)"
   xmlns:inkscape="http://www.inkscape.org/namespaces/inkscape"
   xmlns:sodipodi="http://sodipodi.sourceforge.net/DTD/sodipodi-0.dtd"
   xmlns="http://www.w3.org/2000/svg"
   xmlns:svg="http://www.w3.org/2000/svg"><sodipodi:namedview
   id="namedview990"
   pagecolor="#ffffff"
   bordercolor="#666666"
   borderopacity="1.0"
   inkscape:pageshadow="2"
   inkscape:pageopacity="0.0"
   inkscape:pagecheckerboard="0"
   showgrid="false"
   inkscape:zoom="1.0690608"
   inkscape:cx="81.847545"
   inkscape:cy="338.14729"
   inkscape:window-width="2560"
   inkscape:window-height="1369"
   inkscape:window-x="-8"
   inkscape:window-y="-8"
   inkscape:window-maximized="1"
   inkscape:current-layer="svg988" />
    <g
   transform="matrix(0.46942293,0,0,0.46942293,-228.39798,-108.3545)"
   id="g964">
        <g
   id="g962">
            <g
   transform="matrix(7.377049,0,0,6.873418,-1612.4955,-2483)"
   id="g910">
                <rect
   x="291"
   y="395"
   width="61"
   height="79"
   style="fill:#ebebeb;fill-opacity:0"
   id="rect908" />
            </g>
            <g
   transform="translate(-7.154914,-8.598214)"
   id="g960">
                <g
   transform="scale(1.23077)"
   id="g914">
                    <path
   d="m 698.801,303.413 c -15.628,0.75 -16.351,-8.406 -13.458,-11.511 5.793,-6.216 27.84,-2.352 30.227,-1.934 41.303,3.472 77.913,15.457 81.722,25.6 3.059,8.148 -10.548,24.602 -12.026,26.389 -29.166,35.269 -127.907,128.774 -136.6,135.795 l -0.337,0.268 c 0.373,16.46 2.085,33.91 -1.345,49.976 -0.689,2.841 -6.233,25.716 -30.649,19.894 -25.737,-6.137 -18.42,-67.808 -18.358,-69.748 L 582.133,462.984 C 577.82,458.425 571.548,452.932 566.901,448.41 L 523.27,406.521 c -21.757,-20.303 -42.72,-41.443 -62.839,-63.372 8.013,-5.889 10.568,-9.43 15.979,-17.479 45.436,15.098 98.206,14.447 101.447,15.004 34.524,-0.479 63.347,4.569 99.435,0.851 30.292,-1.206 74.39,-6.294 101.133,-19.175 -37.106,-18.122 -38.573,-13.056 -79.624,-18.937 z"
   style="fill:url(#_Linear1);fill-rule:nonzero"
   id="path912" />
                </g>
                <g
   transform="scale(1.23077)"
   id="g918">
                    <path
   d="m 476.41,325.67 c 66.048,21.947 194.376,16.525 200.882,15.855 -4.677,4.744 -15.24,20.183 -20.636,27.037 l -53.057,67.232 c -3.274,4.14 -18.944,23.154 -20.693,26.75 l -0.773,0.44 C 577.82,458.425 571.548,452.932 566.901,448.41 L 523.27,406.521 c -21.757,-20.303 -42.72,-41.443 -62.839,-63.372 8.013,-5.889 10.568,-9.43 15.979,-17.479 z"
   style="fill:url(#_Linear2);fill-rule:nonzero"
   id="path916" />
                </g>
                <g
   transform="scale(1.23077)"
   id="g922">
                    <path
   d="m 476.41,325.67 c 49.029,16.292 50.027,11.132 101.447,15.004 -1.53,1.797 -5,0.941 -6.53,2.738 -4.114,4.832 -45.983,54.011 -48.057,63.109 -21.757,-20.303 -42.72,-41.443 -62.839,-63.372 8.013,-5.889 10.568,-9.43 15.979,-17.479 z"
   style="fill:url(#_Linear3);fill-rule:nonzero"
   id="path920" />
                </g>
                <g
   transform="scale(1.23077)"
   id="g926">
                    <path
   d="m 698.801,303.413 c -22.659,1.087 -18.435,-18.508 2.53,-15.007 4.2,0.702 9.68,0.763 14.239,1.562 l 1.581,1.525 -0.261,0.705 c -6.731,2.081 -3.83,10.76 -16.207,10.714 -0.672,-0.003 -1.267,0.237 -1.882,0.501 z"
   style="fill:#7250d1;fill-rule:nonzero"
   id="path924" />
                </g>
                <g
   transform="scale(1.23077)"
   id="g930">
                    <path
   d="m 469.435,383.566 c 8.346,6.471 16.941,15.687 24.309,23.37 17.604,17.359 35.338,34.587 53.2,51.681 7.449,7.143 23.97,22.227 29.944,29.622 -0.679,19.997 -3.531,51.166 11.385,66.186 9.487,9.552 23.978,14.744 34.165,25.245 0.204,4.604 1.074,18.11 0.054,21.749 l 0.346,0.417 c 1.063,4.633 0.659,21.345 0.587,27.197 -4.8,-1.154 -15.217,-7.537 -19.625,-10.307 -30.205,-18.984 -60.819,-41.819 -85.141,-67.945 -49.677,-53.364 -52.279,-97.994 -49.224,-167.215 z"
   style="fill:#0752a0;fill-rule:nonzero"
   id="path928" />
                </g>
                <g
   transform="scale(1.23077)"
   id="g934">
                    <path
   d="m 469.435,383.566 c 8.346,6.471 16.941,15.687 24.309,23.37 -7.928,18.783 2.219,61.349 9.761,79.746 16.911,41.25 53.91,72.849 90.025,97.291 8.409,5.691 20.127,13.132 28.962,17.446 l 0.346,0.417 c 1.063,4.633 0.659,21.345 0.587,27.197 -4.8,-1.154 -15.217,-7.537 -19.625,-10.307 -30.205,-18.984 -60.819,-41.819 -85.141,-67.945 -49.677,-53.364 -52.279,-97.994 -49.224,-167.215 z"
   style="fill:url(#_Linear4);fill-rule:nonzero"
   id="path932" />
                </g>
                <g
   transform="scale(1.23077)"
   id="g938">
                    <path
   d="m 752.604,406.415 c 7.367,-7.82 14.794,-15.655 23.095,-22.503 4.141,40.083 4.062,77.512 -13.44,114.765 -23.594,50.223 -67.562,84.549 -112.743,114.393 -7.658,5.058 -17.835,12.224 -26.091,15.963 0.072,-5.852 0.476,-22.564 -0.587,-27.197 l -0.346,-0.417 c 1.02,-3.639 0.15,-17.145 -0.054,-21.749 11.157,-8.527 25.877,-16.401 35.274,-25.598 15.015,-14.696 12.72,-46.693 12.26,-66.639 27.993,-26.544 55.54,-53.554 82.632,-81.018 z"
   style="fill:#1fab6f;fill-rule:nonzero"
   id="path936" />
                </g>
                <g
   transform="scale(1.23077)"
   id="g942">
                    <path
   d="m 752.604,406.415 c 7.367,-7.82 14.794,-15.655 23.095,-22.503 4.141,40.083 4.062,77.512 -13.44,114.765 -23.594,50.223 -67.562,84.549 -112.743,114.393 -7.658,5.058 -17.835,12.224 -26.091,15.963 0.072,-5.852 0.476,-22.564 -0.587,-27.197 6.142,-2.45 19.783,-11.242 25.532,-15.193 33.886,-23.294 67.271,-50.332 87.083,-87.099 12.501,-23.199 18.287,-46.789 18.608,-73.026 0.074,-6.013 0.24,-14.429 -1.457,-20.103 z"
   style="fill:#7ed669;fill-rule:nonzero"
   id="path940" />
                </g>
                <g
   transform="scale(1.23077)"
   id="g946">
                    <path
   d="m 543.439,206.256 c 15.969,-2.396 30.869,8.573 33.33,24.536 2.461,15.963 -8.444,30.912 -24.392,33.439 -16.042,2.542 -31.094,-8.443 -33.569,-24.499 -2.476,-16.057 8.569,-31.067 24.631,-33.476 z"
   style="fill:#ed732e;fill-rule:nonzero"
   id="path944" />
                </g>
                <g
   transform="scale(1.23077)"
   id="g950">
                    <path
   d="m 637.708,228.769 c 10.371,-1.772 20.893,2.17 27.547,10.322 6.654,8.151 8.412,19.252 4.602,29.062 -3.81,9.809 -12.599,16.811 -23.01,18.331 -15.828,2.311 -30.57,-8.54 -33.072,-24.342 -2.502,-15.802 8.166,-30.679 23.933,-33.373 z"
   style="fill:#f0bc29;fill-rule:nonzero"
   id="path948" />
                </g>
                <g
   transform="scale(1.23077)"
   id="g954">
                    <path
   d="m 732.141,203.279 c 15.76,-1.614 29.895,9.729 31.736,25.468 1.841,15.739 -9.295,30.039 -25.002,32.107 -10.364,1.364 -20.659,-2.96 -26.942,-11.315 -6.283,-8.356 -7.58,-19.449 -3.395,-29.03 4.185,-9.581 13.205,-16.165 23.603,-17.23 z"
   style="fill:#03bfdb;fill-rule:nonzero"
   id="path952" />
                </g>
                <g
   transform="scale(1.23077)"
   id="g958">
                    <path
   d="m 460.431,343.149 c -5.377,-6.33 -12.71,-16.023 -12.801,-24.625 -0.112,-10.659 23.717,-18.493 32.44,-20.442 32.739,-7.249 67.339,-10.267 100.825,-11.334 9.77,-0.311 17.011,12.806 -2.879,15.137 -34.628,4.059 -79.555,-0.02 -109.191,20.492 l 7.585,3.293 c -5.411,8.049 -7.966,11.59 -15.979,17.479 z"
   style="fill:#d6457f;fill-rule:nonzero"
   id="path956" />
                </g>
            </g>
        </g>
    </g>
    <defs
   id="defs986">
        <linearGradient
   id="_Linear1"
   x1="0"
   y1="0"
   x2="1"
   y2="0"
   gradientUnits="userSpaceOnUse"
   gradientTransform="matrix(74.75464,58.82285,-58.82285,74.75464,643.36169,382.13867)"><stop
     offset="0"
     style="stop-color:rgb(103,86,212);stop-opacity:1"
     id="stop966" /><stop
     offset="1"
     style="stop-color:rgb(33,111,251);stop-opacity:1"
     id="stop968" /></linearGradient>
        <linearGradient
   id="_Linear2"
   x1="0"
   y1="0"
   x2="1"
   y2="0"
   gradientUnits="userSpaceOnUse"
   gradientTransform="matrix(65.37714,51.06519,-51.06519,65.37714,564.37524,351.4299)"><stop
     offset="0"
     style="stop-color:rgb(167,65,177);stop-opacity:1"
     id="stop971" /><stop
     offset="1"
     style="stop-color:rgb(102,87,212);stop-opacity:1"
     id="stop973" /></linearGradient>
        <linearGradient
   id="_Linear3"
   x1="0"
   y1="0"
   x2="1"
   y2="0"
   gradientUnits="userSpaceOnUse"
   gradientTransform="matrix(70.3262,54.79795,-54.79795,70.3262,480.80191,319.07275)"><stop
     offset="0"
     style="stop-color:rgb(232,43,144);stop-opacity:1"
     id="stop976" /><stop
     offset="1"
     style="stop-color:rgb(164,66,179);stop-opacity:1"
     id="stop978" /></linearGradient>
        <linearGradient
   id="_Linear4"
   x1="0"
   y1="0"
   x2="1"
   y2="0"
   gradientUnits="userSpaceOnUse"
   gradientTransform="matrix(-141.71292,8.16788,-8.16788,-141.71292,615.81885,502.50772)"><stop
     offset="0"
     style="stop-color:rgb(88,204,182);stop-opacity:1"
     id="stop981" /><stop
     offset="1"
     style="stop-color:rgb(28,123,238);stop-opacity:1"
     id="stop983" /></linearGradient>
    </defs>
</svg>
